<svg id="Слой_1" data-name="Слой 1" xmlns="http://www.w3.org/2000/svg" viewBox="0 0 625.6 491.29"><defs><style>.cls-1{fill:#fafafa;}</style></defs><path class="cls-1" d="M87.2,378.4q0,24,20,36.8l268,178.4a43.86,43.86,0,0,0,22.4,8,40.52,40.52,0,0,0,23.2-5.6,48.5,48.5,0,0,0,17.6-16.8,41.94,41.94,0,0,0,6.4-22.4V467.2q86.4,0,155.2,49.6t96.8,128.8q16-44.8,16-88.8,0-72.79-36-134.4a267.59,267.59,0,0,0-97.6-97.6q-61.61-36-134.4-36V199.2a41.94,41.94,0,0,0-6.4-22.4A48.5,48.5,0,0,0,420.8,160a40.52,40.52,0,0,0-23.2-5.6,43.86,43.86,0,0,0-22.4,8l-268,178.4q-20,12.79-20,37.6Z" transform="translate(-87.2 -154.31)"/></svg>